# Blender 3.3.1
# www.blender.org
mtllib corner_slope.mtl
o Cube
v -4.000000 -4.000000 4.000000
v -4.000000 4.000000 4.000000
v -4.000000 -4.000000 -4.000000
v 4.000000 -4.000000 4.000000
v 4.000000 -4.000000 -4.000000
v -4.000000 4.000000 3.959785
v -4.000000 -3.959785 -4.000000
v 4.000000 -3.959785 4.000000
v -3.959785 4.000000 4.000000
v -3.959785 4.000000 3.959785
v 4.000000 -3.959785 -4.000000
vn -0.0000 -0.0000 -1.0000
vn 1.0000 -0.0000 -0.0000
vn -0.0000 -0.0000 1.0000
vn -0.0000 -1.0000 -0.0000
vn -1.0000 -0.0000 -0.0000
vn -0.0000 0.7071 -0.7071
vn 0.7071 0.7071 -0.0000
vn -0.0000 1.0000 -0.0000
vt 0.375000 1.000000
vt 0.125000 0.750000
vt 0.375000 0.000000
vt 0.625000 1.000000
vt 0.625000 0.000000
vt 0.875000 0.750000
vt 0.125000 0.500000
vt 0.375000 0.250000
vt 0.375000 0.750000
vt 0.375000 0.500000
vt 0.625000 0.001257
vt 0.625000 0.250000
vt 0.875000 0.748743
vt 0.376257 0.250000
vt 0.376257 0.750000
vt 0.625000 0.998743
vt 0.873743 0.750000
vt 0.625000 0.251257
vt 0.873743 0.748743
vt 0.376257 0.500000
s 0
f 3/8/1 7/14/1 11/20/1 5/10/1
f 5/10/2 11/20/2 8/15/2 4/9/2
f 4/9/3 8/15/3 9/16/3 2/4/3 1/1/3
f 3/7/4 5/10/4 4/9/4 1/2/4
f 1/3/5 2/5/5 6/11/5 7/14/5 3/8/5
f 6/12/6 10/18/6 11/20/6 7/14/6
f 10/19/7 9/17/7 8/15/7 11/20/7
f 10/19/8 6/13/8 2/6/8 9/17/8
