# Blender 3.3.1
# www.blender.org
mtllib corner_steps.mtl
o Cube
v -4.000000 -4.000000 4.000000
v -4.000000 4.000000 4.000000
v -4.000000 -4.000000 -4.000000
v 4.000000 -4.000000 4.000000
v 4.000000 -4.000000 -4.000000
v -4.000000 4.000000 3.139885
v -4.000000 -3.139885 -4.000000
v -4.000000 3.553757 3.139885
v -4.000000 3.553757 2.693643
v -4.000000 3.107514 2.693643
v -4.000000 3.107514 2.247400
v -4.000000 2.661272 2.247400
v -4.000000 2.661272 1.801157
v -4.000000 2.215029 1.801157
v -4.000000 2.215029 1.354914
v -4.000000 1.768786 1.354914
v -4.000000 1.768786 0.908671
v -4.000000 1.322543 0.908671
v -4.000000 1.322543 0.462428
v -4.000000 0.876300 0.462428
v -4.000000 0.876300 0.016186
v -4.000000 0.430057 0.016186
v -4.000000 0.430057 -0.430057
v -4.000000 -0.016186 -0.430057
v -4.000000 -0.016186 -0.876300
v -4.000000 -0.462428 -0.876300
v -4.000000 -0.462428 -1.322543
v -4.000000 -0.908671 -1.322543
v -4.000000 -0.908671 -1.768786
v -4.000000 -1.354914 -1.768786
v -4.000000 -1.354914 -2.215029
v -4.000000 -1.801157 -2.215029
v -4.000000 -1.801157 -2.661272
v -4.000000 -2.247400 -2.661272
v -4.000000 -2.247400 -3.107514
v -4.000000 -2.693643 -3.107514
v -4.000000 -2.693643 -3.553757
v -4.000000 -3.139885 -3.553757
v 4.000000 -3.139885 4.000000
v -3.139885 4.000000 4.000000
v 3.553757 -3.139885 4.000000
v 3.553757 -2.693643 4.000000
v 3.107514 -2.693643 4.000000
v 3.107514 -2.247400 4.000000
v 2.661272 -2.247400 4.000000
v 2.661272 -1.801157 4.000000
v 2.215029 -1.801157 4.000000
v 2.215029 -1.354914 4.000000
v 1.768786 -1.354914 4.000000
v 1.768786 -0.908671 4.000000
v 1.322543 -0.908671 4.000000
v 1.322543 -0.462428 4.000000
v 0.876300 -0.462428 4.000000
v 0.876300 -0.016186 4.000000
v 0.430057 -0.016186 4.000000
v 0.430057 0.430057 4.000000
v -0.016186 0.430057 4.000000
v -0.016186 0.876300 4.000000
v -0.462428 0.876300 4.000000
v -0.462428 1.322543 4.000000
v -0.908671 1.322543 4.000000
v -0.908671 1.768786 4.000000
v -1.354914 1.768786 4.000000
v -1.354914 2.215029 4.000000
v -1.801157 2.215029 4.000000
v -1.801157 2.661272 4.000000
v -2.247400 2.661272 4.000000
v -2.247400 3.107514 4.000000
v -2.693643 3.107514 4.000000
v -2.693643 3.553757 4.000000
v -3.139885 3.553757 4.000000
v -3.139885 4.000000 3.139885
v 4.000000 -3.139885 -4.000000
v -3.139885 3.553757 3.139885
v -2.693643 3.553757 2.693643
v -2.693643 3.107514 2.693643
v -2.247400 3.107514 2.247400
v -2.247400 2.661272 2.247400
v -1.801157 2.661272 1.801157
v -1.801157 2.215029 1.801157
v -1.354914 2.215029 1.354914
v -1.354914 1.768786 1.354914
v -0.908671 1.768786 0.908671
v -0.908671 1.322543 0.908671
v -0.462428 1.322543 0.462428
v -0.462428 0.876300 0.462428
v -0.016186 0.876300 0.016186
v -0.016186 0.430057 0.016186
v 0.430057 0.430057 -0.430057
v 0.430057 -0.016186 -0.430057
v 0.876300 -0.016186 -0.876300
v 0.876300 -0.462428 -0.876300
v 1.322543 -0.462428 -1.322543
v 1.322543 -0.908671 -1.322543
v 1.768786 -0.908671 -1.768786
v 1.768786 -1.354914 -1.768786
v 2.215029 -1.354914 -2.215029
v 2.215029 -1.801157 -2.215029
v 2.661272 -1.801157 -2.661272
v 2.661272 -2.247400 -2.661272
v 3.107514 -2.247400 -3.107514
v 3.107514 -2.693643 -3.107514
v 3.553757 -2.693643 -3.553757
v 3.553757 -3.139885 -3.553757
vn -0.0000 -0.0000 -1.0000
vn 1.0000 -0.0000 -0.0000
vn -0.0000 -0.0000 1.0000
vn -0.0000 -1.0000 -0.0000
vn -1.0000 -0.0000 -0.0000
vn -0.0000 1.0000 -0.0000
vt 0.375000 1.000000
vt 0.125000 0.750000
vt 0.375000 0.000000
vt 0.625000 1.000000
vt 0.625000 0.000000
vt 0.875000 0.750000
vt 0.125000 0.500000
vt 0.375000 0.250000
vt 0.375000 0.750000
vt 0.375000 0.500000
vt 0.625000 0.026879
vt 0.875000 0.723121
vt 0.401879 0.250000
vt 0.611055 0.026879
vt 0.875000 0.723121
vt 0.611055 0.040824
vt 0.875000 0.709176
vt 0.597110 0.040824
vt 0.875000 0.709176
vt 0.597110 0.054769
vt 0.875000 0.695231
vt 0.583165 0.054769
vt 0.875000 0.695231
vt 0.583165 0.068714
vt 0.875000 0.681286
vt 0.569220 0.068714
vt 0.875000 0.681286
vt 0.569220 0.082659
vt 0.875000 0.667341
vt 0.555275 0.082659
vt 0.875000 0.667341
vt 0.555275 0.096604
vt 0.875000 0.653396
vt 0.541330 0.096604
vt 0.875000 0.653396
vt 0.541330 0.110549
vt 0.875000 0.639451
vt 0.527384 0.110549
vt 0.875000 0.639451
vt 0.527384 0.124494
vt 0.875000 0.625506
vt 0.513439 0.124494
vt 0.875000 0.625506
vt 0.513439 0.138439
vt 0.875000 0.500000
vt 0.625000 0.250000
vt 0.499494 0.138439
vt 0.499494 0.250000
vt 0.499494 0.152384
vt 0.499494 0.250000
vt 0.485549 0.152384
vt 0.485549 0.250000
vt 0.485549 0.166329
vt 0.485549 0.250000
vt 0.471604 0.166329
vt 0.471604 0.250000
vt 0.471604 0.180275
vt 0.471604 0.250000
vt 0.457659 0.180275
vt 0.457659 0.250000
vt 0.457659 0.194220
vt 0.457659 0.250000
vt 0.443714 0.194220
vt 0.443714 0.250000
vt 0.443714 0.208165
vt 0.443714 0.250000
vt 0.429769 0.208165
vt 0.429769 0.250000
vt 0.429769 0.222110
vt 0.429769 0.250000
vt 0.415824 0.222110
vt 0.415824 0.250000
vt 0.415824 0.236055
vt 0.415824 0.250000
vt 0.401879 0.236055
vt 0.401879 0.250000
vt 0.401879 0.750000
vt 0.625000 0.973121
vt 0.848121 0.750000
vt 0.401879 0.763945
vt 0.401879 0.750000
vt 0.415824 0.763945
vt 0.415824 0.750000
vt 0.415824 0.777890
vt 0.415824 0.750000
vt 0.429769 0.777890
vt 0.429769 0.750000
vt 0.429769 0.791835
vt 0.429769 0.750000
vt 0.443714 0.791835
vt 0.443714 0.750000
vt 0.443714 0.805780
vt 0.443714 0.750000
vt 0.457659 0.805780
vt 0.457659 0.750000
vt 0.457659 0.819725
vt 0.457659 0.750000
vt 0.471604 0.819725
vt 0.471604 0.750000
vt 0.471604 0.833670
vt 0.471604 0.750000
vt 0.485549 0.833671
vt 0.485549 0.750000
vt 0.485549 0.847616
vt 0.485549 0.750000
vt 0.499494 0.847616
vt 0.499494 0.750000
vt 0.499494 0.861561
vt 0.499494 0.750000
vt 0.513439 0.861561
vt 0.625000 0.750000
vt 0.513439 0.875506
vt 0.750506 0.750000
vt 0.527384 0.875506
vt 0.750506 0.750000
vt 0.527384 0.889451
vt 0.764451 0.750000
vt 0.541330 0.889451
vt 0.764451 0.750000
vt 0.541329 0.903396
vt 0.778396 0.750000
vt 0.555275 0.903396
vt 0.778396 0.750000
vt 0.555275 0.917341
vt 0.792341 0.750000
vt 0.569220 0.917341
vt 0.792341 0.750000
vt 0.569220 0.931286
vt 0.806286 0.750000
vt 0.583165 0.931286
vt 0.806286 0.750000
vt 0.583165 0.945231
vt 0.820231 0.750000
vt 0.597110 0.945231
vt 0.820231 0.750000
vt 0.597110 0.959176
vt 0.834176 0.750000
vt 0.611055 0.959176
vt 0.834176 0.750000
vt 0.611055 0.973121
vt 0.848121 0.750000
vt 0.848121 0.723121
vt 0.401879 0.500000
vt 0.848121 0.723121
vt 0.834176 0.709176
vt 0.834176 0.709176
vt 0.820231 0.695231
vt 0.820231 0.695231
vt 0.806286 0.681286
vt 0.806286 0.681286
vt 0.792341 0.667341
vt 0.792341 0.667341
vt 0.778396 0.653396
vt 0.778396 0.653396
vt 0.764451 0.639451
vt 0.764451 0.639451
vt 0.750506 0.625506
vt 0.750506 0.625506
vt 0.736561 0.500000
vt 0.625000 0.388439
vt 0.625000 0.611561
vt 0.499494 0.388439
vt 0.499494 0.611561
vt 0.499494 0.402384
vt 0.499494 0.597616
vt 0.485549 0.402384
vt 0.485549 0.597616
vt 0.485549 0.416330
vt 0.485549 0.583670
vt 0.471604 0.416330
vt 0.471604 0.583670
vt 0.471604 0.430275
vt 0.471604 0.569725
vt 0.457659 0.430275
vt 0.457659 0.569725
vt 0.457659 0.444220
vt 0.457659 0.555780
vt 0.443714 0.444220
vt 0.443714 0.555780
vt 0.443714 0.458165
vt 0.443714 0.541835
vt 0.429769 0.458165
vt 0.429769 0.541835
vt 0.429769 0.472110
vt 0.429769 0.527890
vt 0.415824 0.472110
vt 0.415824 0.527890
vt 0.415824 0.486055
vt 0.415824 0.513945
vt 0.401879 0.486055
vt 0.401879 0.513945
s 0
f 3/8/1 7/13/1 73/143/1 5/10/1
f 5/10/2 73/143/2 39/77/2 4/9/2
f 4/9/3 39/77/3 41/80/3 42/82/3 43/84/3 44/86/3 45/88/3 46/90/3 47/92/3 48/94/3 49/96/3 50/98/3 51/100/3 52/102/3 53/104/3 54/106/3 55/108/3 56/110/3 57/112/3 58/114/3 59/116/3 60/118/3 61/120/3 62/122/3 63/124/3 64/126/3 65/128/3 66/130/3 67/132/3 68/134/3 69/136/3 70/138/3 71/140/3 40/78/3 2/4/3 1/1/3
f 3/7/4 5/10/4 4/9/4 1/2/4
f 1/3/5 2/5/5 6/11/5 8/14/5 9/16/5 10/18/5 11/20/5 12/22/5 13/24/5 14/26/5 15/28/5 16/30/5 17/32/5 18/34/5 19/36/5 20/38/5 21/40/5 22/42/5 23/44/5 24/47/5 25/49/5 26/51/5 27/53/5 28/55/5 29/57/5 30/59/5 31/61/5 32/63/5 33/65/5 34/67/5 35/69/5 36/71/5 37/73/5 38/75/5 7/13/5 3/8/5
f 6/12/1 72/142/1 74/144/1 8/15/1
f 8/15/6 74/144/6 75/145/6 9/17/6
f 9/17/1 75/145/1 76/146/1 10/19/1
f 10/19/6 76/146/6 77/147/6 11/21/6
f 11/21/1 77/147/1 78/148/1 12/23/1
f 12/23/6 78/148/6 79/149/6 13/25/6
f 13/25/1 79/149/1 80/150/1 14/27/1
f 14/27/6 80/150/6 81/151/6 15/29/6
f 15/29/1 81/151/1 82/152/1 16/31/1
f 16/31/6 82/152/6 83/153/6 17/33/6
f 17/33/1 83/153/1 84/154/1 18/35/1
f 18/35/6 84/154/6 85/155/6 19/37/6
f 19/37/1 85/155/1 86/156/1 20/39/1
f 20/39/6 86/156/6 87/157/6 21/41/6
f 21/41/1 87/157/1 88/158/1 22/43/1
f 22/43/6 88/158/6 89/159/6 23/45/6
f 23/46/1 89/160/1 90/162/1 24/48/1
f 24/48/6 90/162/6 91/164/6 25/50/6
f 25/50/1 91/164/1 92/166/1 26/52/1
f 26/52/6 92/166/6 93/168/6 27/54/6
f 27/54/1 93/168/1 94/170/1 28/56/1
f 28/56/6 94/170/6 95/172/6 29/58/6
f 29/58/1 95/172/1 96/174/1 30/60/1
f 30/60/6 96/174/6 97/176/6 31/62/6
f 31/62/1 97/176/1 98/178/1 32/64/1
f 32/64/6 98/178/6 99/180/6 33/66/6
f 33/66/1 99/180/1 100/182/1 34/68/1
f 34/68/6 100/182/6 101/184/6 35/70/6
f 35/70/1 101/184/1 102/186/1 36/72/1
f 36/72/6 102/186/6 103/188/6 37/74/6
f 37/74/1 103/188/1 104/190/1 38/76/1
f 38/76/6 104/190/6 73/143/6 7/13/6
f 72/142/2 40/79/2 71/141/2 74/144/2
f 74/144/6 71/141/6 70/139/6 75/145/6
f 75/145/2 70/139/2 69/137/2 76/146/2
f 76/146/6 69/137/6 68/135/6 77/147/6
f 77/147/2 68/135/2 67/133/2 78/148/2
f 78/148/6 67/133/6 66/131/6 79/149/6
f 79/149/2 66/131/2 65/129/2 80/150/2
f 80/150/6 65/129/6 64/127/6 81/151/6
f 81/151/2 64/127/2 63/125/2 82/152/2
f 82/152/6 63/125/6 62/123/6 83/153/6
f 83/153/2 62/123/2 61/121/2 84/154/2
f 84/154/6 61/121/6 60/119/6 85/155/6
f 85/155/2 60/119/2 59/117/2 86/156/2
f 86/156/6 59/117/6 58/115/6 87/157/6
f 87/157/2 58/115/2 57/113/2 88/158/2
f 88/158/6 57/113/6 56/111/6 89/161/6
f 89/161/2 56/111/2 55/109/2 90/163/2
f 90/163/6 55/109/6 54/107/6 91/165/6
f 91/165/2 54/107/2 53/105/2 92/167/2
f 92/167/6 53/105/6 52/103/6 93/169/6
f 93/169/2 52/103/2 51/101/2 94/171/2
f 94/171/6 51/101/6 50/99/6 95/173/6
f 95/173/2 50/99/2 49/97/2 96/175/2
f 96/175/6 49/97/6 48/95/6 97/177/6
f 97/177/2 48/95/2 47/93/2 98/179/2
f 98/179/6 47/93/6 46/91/6 99/181/6
f 99/181/2 46/91/2 45/89/2 100/183/2
f 100/183/6 45/89/6 44/87/6 101/185/6
f 101/185/2 44/87/2 43/85/2 102/187/2
f 102/187/6 43/85/6 42/83/6 103/189/6
f 103/189/2 42/83/2 41/81/2 104/191/2
f 104/191/6 41/81/6 39/77/6 73/143/6
f 72/142/6 6/12/6 2/6/6 40/79/6
