# Blender 3.3.1
# www.blender.org
mtllib untitled.mtl
o Cube
v -4.000000 -4.000000 4.000000
v -4.000000 4.000000 4.000000
v -4.000000 -4.000000 -4.000000
v -4.000000 4.000000 -4.000000
v 4.000000 -4.000000 4.000000
v 4.000000 -4.000000 -4.000000
v 4.000000 -3.504774 4.000000
v -3.504774 4.000000 4.000000
v 3.530951 -3.504774 4.000000
v 3.530951 -3.035726 4.000000
v 3.061903 -3.035726 4.000000
v 3.061903 -2.566677 4.000000
v 2.592855 -2.566677 4.000000
v 2.592855 -2.097629 4.000000
v 2.123806 -2.097629 4.000000
v 2.123806 -1.628581 4.000000
v 1.654758 -1.628581 4.000000
v 1.654758 -1.159532 4.000000
v 1.185710 -1.159532 4.000000
v 1.185710 -0.690484 4.000000
v 0.716661 -0.690484 4.000000
v 0.716661 -0.221436 4.000000
v 0.247613 -0.221436 4.000000
v 0.247613 0.247613 4.000000
v -0.221436 0.247613 4.000000
v -0.221436 0.716661 4.000000
v -0.690484 0.716661 4.000000
v -0.690484 1.185710 4.000000
v -1.159532 1.185710 4.000000
v -1.159532 1.654758 4.000000
v -1.628581 1.654758 4.000000
v -1.628581 2.123806 4.000000
v -2.097629 2.123806 4.000000
v -2.097629 2.592855 4.000000
v -2.566677 2.592855 4.000000
v -2.566677 3.061903 4.000000
v -3.035726 3.061903 4.000000
v -3.035726 3.530951 4.000000
v -3.504774 3.530951 4.000000
v -3.504774 4.000000 -4.000000
v 4.000000 -3.504774 -4.000000
v -3.504774 3.530951 -4.000000
v -3.035726 3.530951 -4.000000
v -3.035726 3.061903 -4.000000
v -2.566677 3.061903 -4.000000
v -2.566677 2.592855 -4.000000
v -2.097629 2.592855 -4.000000
v -2.097629 2.123806 -4.000000
v -1.628581 2.123806 -4.000000
v -1.628581 1.654758 -4.000000
v -1.159532 1.654758 -4.000000
v -1.159532 1.185710 -4.000000
v -0.690484 1.185710 -4.000000
v -0.690484 0.716661 -4.000000
v -0.221436 0.716661 -4.000000
v -0.221436 0.247613 -4.000000
v 0.247613 0.247613 -4.000000
v 0.247613 -0.221436 -4.000000
v 0.716661 -0.221436 -4.000000
v 0.716661 -0.690484 -4.000000
v 1.185710 -0.690484 -4.000000
v 1.185710 -1.159532 -4.000000
v 1.654758 -1.159532 -4.000000
v 1.654758 -1.628581 -4.000000
v 2.123806 -1.628581 -4.000000
v 2.123806 -2.097629 -4.000000
v 2.592855 -2.097629 -4.000000
v 2.592855 -2.566677 -4.000000
v 3.061903 -2.566677 -4.000000
v 3.061903 -3.035726 -4.000000
v 3.530951 -3.035726 -4.000000
v 3.530951 -3.504774 -4.000000
vn -1.0000 -0.0000 -0.0000
vn -0.0000 -0.0000 1.0000
vn -0.0000 -0.0000 -1.0000
vn -0.0000 -1.0000 -0.0000
vn 1.0000 -0.0000 -0.0000
vn -0.0000 1.0000 -0.0000
vt 0.375000 0.000000
vt 0.375000 1.000000
vt 0.125000 0.750000
vt 0.625000 0.000000
vt 0.625000 1.000000
vt 0.875000 0.750000
vt 0.375000 0.250000
vt 0.125000 0.500000
vt 0.625000 0.250000
vt 0.875000 0.500000
vt 0.375000 0.750000
vt 0.375000 0.500000
vt 0.390476 0.750000
vt 0.625000 0.984524
vt 0.859524 0.750000
vt 0.390476 0.764658
vt 0.390476 0.750000
vt 0.405134 0.764658
vt 0.405134 0.750000
vt 0.405134 0.779316
vt 0.405134 0.750000
vt 0.419791 0.779316
vt 0.419791 0.750000
vt 0.419791 0.793973
vt 0.419791 0.750000
vt 0.434449 0.793973
vt 0.434449 0.750000
vt 0.434449 0.808631
vt 0.434449 0.750000
vt 0.449107 0.808631
vt 0.449107 0.750000
vt 0.449107 0.823289
vt 0.449107 0.750000
vt 0.463765 0.823289
vt 0.463765 0.750000
vt 0.463765 0.837947
vt 0.463765 0.750000
vt 0.478422 0.837947
vt 0.478422 0.750000
vt 0.478422 0.852604
vt 0.478422 0.750000
vt 0.493080 0.852604
vt 0.493080 0.750000
vt 0.493080 0.867262
vt 0.493080 0.750000
vt 0.507738 0.867262
vt 0.625000 0.750000
vt 0.507738 0.881920
vt 0.756920 0.750000
vt 0.522396 0.881920
vt 0.756920 0.750000
vt 0.522396 0.896578
vt 0.771578 0.750000
vt 0.537053 0.896578
vt 0.771578 0.750000
vt 0.537053 0.911235
vt 0.786235 0.750000
vt 0.551711 0.911235
vt 0.786235 0.750000
vt 0.551711 0.925893
vt 0.800893 0.750000
vt 0.566369 0.925893
vt 0.800893 0.750000
vt 0.566369 0.940551
vt 0.815551 0.750000
vt 0.581027 0.940551
vt 0.815551 0.750000
vt 0.581027 0.955209
vt 0.830209 0.750000
vt 0.595685 0.955209
vt 0.830209 0.750000
vt 0.595684 0.969866
vt 0.844866 0.750000
vt 0.610342 0.969866
vt 0.844866 0.750000
vt 0.610342 0.984524
vt 0.859524 0.750000
vt 0.625000 0.265476
vt 0.859524 0.500000
vt 0.390476 0.500000
vt 0.610342 0.265476
vt 0.859524 0.500000
vt 0.610342 0.280134
vt 0.844866 0.500000
vt 0.595684 0.280134
vt 0.844866 0.500000
vt 0.595685 0.294791
vt 0.830209 0.500000
vt 0.581027 0.294791
vt 0.830209 0.500000
vt 0.581027 0.309449
vt 0.815551 0.500000
vt 0.566369 0.309449
vt 0.815551 0.500000
vt 0.566369 0.324107
vt 0.800893 0.500000
vt 0.551711 0.324107
vt 0.800893 0.500000
vt 0.551711 0.338765
vt 0.786235 0.500000
vt 0.537053 0.338765
vt 0.786235 0.500000
vt 0.537053 0.353422
vt 0.771578 0.500000
vt 0.522396 0.353422
vt 0.771578 0.500000
vt 0.522396 0.368080
vt 0.756920 0.500000
vt 0.507738 0.368080
vt 0.756920 0.500000
vt 0.507738 0.382738
vt 0.625000 0.500000
vt 0.493080 0.382738
vt 0.493080 0.500000
vt 0.493080 0.397396
vt 0.493080 0.500000
vt 0.478422 0.397396
vt 0.478422 0.500000
vt 0.478422 0.412053
vt 0.478422 0.500000
vt 0.463765 0.412053
vt 0.463765 0.500000
vt 0.463765 0.426711
vt 0.463765 0.500000
vt 0.449107 0.426711
vt 0.449107 0.500000
vt 0.449107 0.441369
vt 0.449107 0.500000
vt 0.434449 0.441369
vt 0.434449 0.500000
vt 0.434449 0.456027
vt 0.434449 0.500000
vt 0.419791 0.456027
vt 0.419791 0.500000
vt 0.419791 0.470684
vt 0.419791 0.500000
vt 0.405134 0.470684
vt 0.405134 0.500000
vt 0.405134 0.485342
vt 0.405134 0.500000
vt 0.390476 0.485342
vt 0.390476 0.500000
s 0
f 1/1/1 2/4/1 4/9/1 3/7/1
f 5/11/2 7/13/2 9/16/2 10/18/2 11/20/2 12/22/2 13/24/2 14/26/2 15/28/2 16/30/2 17/32/2 18/34/2 19/36/2 20/38/2 21/40/2 22/42/2 23/44/2 24/46/2 25/48/2 26/50/2 27/52/2 28/54/2 29/56/2 30/58/2 31/60/2 32/62/2 33/64/2 34/66/2 35/68/2 36/70/2 37/72/2 38/74/2 39/76/2 8/14/2 2/5/2 1/2/2
f 3/7/3 4/9/3 40/78/3 42/81/3 43/83/3 44/85/3 45/87/3 46/89/3 47/91/3 48/93/3 49/95/3 50/97/3 51/99/3 52/101/3 53/103/3 54/105/3 55/107/3 56/109/3 57/111/3 58/113/3 59/115/3 60/117/3 61/119/3 62/121/3 63/123/3 64/125/3 65/127/3 66/129/3 67/131/3 68/133/3 69/135/3 70/137/3 71/139/3 72/141/3 41/80/3 6/12/3
f 3/8/4 6/12/4 5/11/4 1/3/4
f 6/12/5 41/80/5 7/13/5 5/11/5
f 40/79/5 8/15/5 39/77/5 42/82/5
f 42/82/6 39/77/6 38/75/6 43/84/6
f 43/84/5 38/75/5 37/73/5 44/86/5
f 44/86/6 37/73/6 36/71/6 45/88/6
f 45/88/5 36/71/5 35/69/5 46/90/5
f 46/90/6 35/69/6 34/67/6 47/92/6
f 47/92/5 34/67/5 33/65/5 48/94/5
f 48/94/6 33/65/6 32/63/6 49/96/6
f 49/96/5 32/63/5 31/61/5 50/98/5
f 50/98/6 31/61/6 30/59/6 51/100/6
f 51/100/5 30/59/5 29/57/5 52/102/5
f 52/102/6 29/57/6 28/55/6 53/104/6
f 53/104/5 28/55/5 27/53/5 54/106/5
f 54/106/6 27/53/6 26/51/6 55/108/6
f 55/108/5 26/51/5 25/49/5 56/110/5
f 56/110/6 25/49/6 24/47/6 57/112/6
f 57/112/5 24/47/5 23/45/5 58/114/5
f 58/114/6 23/45/6 22/43/6 59/116/6
f 59/116/5 22/43/5 21/41/5 60/118/5
f 60/118/6 21/41/6 20/39/6 61/120/6
f 61/120/5 20/39/5 19/37/5 62/122/5
f 62/122/6 19/37/6 18/35/6 63/124/6
f 63/124/5 18/35/5 17/33/5 64/126/5
f 64/126/6 17/33/6 16/31/6 65/128/6
f 65/128/5 16/31/5 15/29/5 66/130/5
f 66/130/6 15/29/6 14/27/6 67/132/6
f 67/132/5 14/27/5 13/25/5 68/134/5
f 68/134/6 13/25/6 12/23/6 69/136/6
f 69/136/5 12/23/5 11/21/5 70/138/5
f 70/138/6 11/21/6 10/19/6 71/140/6
f 71/140/5 10/19/5 9/17/5 72/142/5
f 72/142/6 9/17/6 7/13/6 41/80/6
f 40/79/6 4/10/6 2/6/6 8/15/6
